<svg xmlns="http://www.w3.org/2000/svg" width="300" height="84"><defs id="SvgjsDefs1669"></defs><g id="SvgjsG1670" featurekey="root" fill="#c9e9fd"></g><g id="SvgjsG1671" featurekey="symbol1" fill="#000000" transform="matrix(0.7312606799459308,0,0,0.7312606799459308,5.128409214083501,0.0008225152388483536)"><g><path fill="none" stroke="#000000" stroke-width="4" d="M50.721,101.172c11.441-0.08,21.822-4.551,29.568-11.797l9.448-0.066   l12.65-0.088l-6.402-10.912l-4.093-6.977c1.496-4.465,2.305-9.244,2.27-14.217c-0.17-24.161-19.895-43.61-44.057-43.44   S6.494,33.569,6.663,57.73C6.833,81.893,26.559,101.342,50.721,101.172z"></path><path fill="none" stroke="#000000" stroke-width="3" stroke-linecap="round" stroke-linejoin="round" d="M32.229,67.475   c0-10.039,18.179-38.28,18.179-38.28s18.178,28.241,18.178,38.28s-8.139,18.178-18.178,18.178   C40.367,85.652,32.229,77.514,32.229,67.475z"></path><path fill="none" stroke="#000000" stroke-width="3" stroke-linecap="round" stroke-linejoin="round" d="M63.011,69.922   c0,5.238-4.247,9.486-9.486,9.486"></path></g></g><g id="SvgjsG1672" featurekey="text1" fill="#000000" transform="matrix(2.744741250124984,0,0,2.744741250124984,93.13814687468754,9.574554488408298)"><path d="M2.5 17.160000000000004 l0 -10.76 c0 -0.42 0.32 -0.62 0.66 -0.62 s0.68 0.2 0.68 0.62 l0 4.58 l4.54 0 l0 -4.58 c0 -0.42 0.32 -0.64 0.64 -0.64 s0.66 0.22 0.66 0.64 l0 10.76 c0 0.42 -0.34 0.64 -0.66 0.64 s-0.64 -0.22 -0.64 -0.64 l0 -4.82 l-4.54 0 l0 4.82 c0 0.42 -0.34 0.64 -0.68 0.64 s-0.66 -0.22 -0.66 -0.64 z M21.98 9.360000000000003 c0 1.72 -1.72 2.86 -3.2 3.74 c-1.2 0.7 -2.42 1.58 -2.6 3.36 l4.68 0 c0.48 0 0.7 0.34 0.7 0.68 s-0.22 0.66 -0.68 0.66 l-5.42 0 c-0.28 0 -0.66 0 -0.66 -0.64 c0 -3.3 1.54 -4.16 3 -5 c1.62 -0.92 2.76 -1.68 2.82 -2.96 c0.06 -1.38 -1.04 -2.24 -2.38 -2.24 c-1.22 0 -1.82 0.68 -2 1.16 c-0.34 0.88 -1.64 0.48 -1.28 -0.4 c0.34 -0.84 1.22 -2.08 3.28 -2.08 c2.36 0 3.74 1.62 3.74 3.72 z M26.52 17.160000000000004 l0 -10.76 c0 -0.42 0.32 -0.64 0.64 -0.64 s0.66 0.22 0.66 0.64 l0 4.84 l3.86 -5.18 c0.5 -0.68 1.64 -0.02 1.12 0.68 l-2.24 3.08 l2.74 7.1 c0.18 0.48 -0.18 0.88 -0.6 0.88 c-0.24 0 -0.52 -0.18 -0.66 -0.56 c-0.78 -2 -1.62 -4.08 -2.4 -6.12 l-1.82 2.36 l0 3.68 c0 0.42 -0.34 0.64 -0.66 0.64 s-0.64 -0.22 -0.64 -0.64 z M44.92 6.400000000000002 l0 10.76 c0 0.42 -0.32 0.64 -0.64 0.64 c-0.24 0 -0.56 -0.18 -0.7 -0.44 c-1.5 -2.94 -2.62 -5.2 -4.12 -8.16 l0 7.96 c0 0.42 -0.32 0.64 -0.66 0.64 c-0.32 0 -0.66 -0.22 -0.66 -0.64 l0 -10.76 c0 -0.7 1 -0.74 1.22 -0.32 l4.22 8.34 l0 -8.02 c0 -0.42 0.32 -0.64 0.66 -0.64 s0.68 0.22 0.68 0.64 z M49.82000000000001 14.260000000000002 l0 -4.96 c0 -2.4 1.24 -3.68 3.64 -3.68 l0.52 0 c2.38 0 3.64 1.28 3.64 3.68 l0 4.96 c0 2.2 -1.46 3.64 -3.64 3.64 l-0.52 0 c-2.22 0 -3.64 -1.46 -3.64 -3.64 z M53.46000000000001 16.560000000000002 l0.52 0 c1.44 0 2.3 -0.9 2.3 -2.3 l0 -4.96 c0 -1.56 -0.76 -2.36 -2.3 -2.36 l-0.52 0 c-1.52 0 -2.36 0.82 -2.36 2.36 l0 4.96 c0 1.46 0.92 2.3 2.36 2.3 z M65.94 15.360000000000003 l2.4 -6.36 l-0.6 -2.34 c-0.26 -0.96 1.08 -1.2 1.3 -0.36 l2.36 8.68 l2.54 -8.68 c0.26 -0.9 1.58 -0.52 1.32 0.34 l-3.1 10.54 c-0.12 0.38 -0.46 0.62 -0.78 0.62 c-0.36 0 -0.68 -0.22 -0.8 -0.62 l-1.64 -6.02 c-0.76 2 -1.56 4.04 -2.3 6.04 c-0.14 0.36 -0.46 0.6 -0.76 0.6 s-0.6 -0.2 -0.74 -0.64 l-3.18 -10.52 c-0.26 -0.86 0.96 -1.14 1.22 -0.38 z"></path></g></svg>